<svg width="13" height="15" viewBox="0 0 13 15" fill="none" xmlns="http://www.w3.org/2000/svg">
<path d="M4.54053 2.10019H8.47803V1.00644C8.47803 0.65097 8.75146 0.350189 9.13428 0.350189C9.48975 0.350189 9.79053 0.65097 9.79053 1.00644V2.10019H10.8843C11.8413 2.10019 12.6343 2.89316 12.6343 3.85019V12.6002C12.6343 13.5846 11.8413 14.3502 10.8843 14.3502H2.13428C1.1499 14.3502 0.384277 13.5846 0.384277 12.6002V3.85019C0.384277 2.89316 1.1499 2.10019 2.13428 2.10019H3.22803V1.00644C3.22803 0.65097 3.50146 0.350189 3.88428 0.350189C4.23975 0.350189 4.54053 0.65097 4.54053 1.00644V2.10019ZM1.69678 12.6002C1.69678 12.8463 1.88818 13.0377 2.13428 13.0377H10.8843C11.103 13.0377 11.3218 12.8463 11.3218 12.6002V5.60019H1.69678V12.6002Z" fill="white"/>
</svg>
