<svg width="16" height="5" viewBox="0 0 16 5" fill="none" xmlns="http://www.w3.org/2000/svg">
<path d="M4.21875 2.25C4.21875 3.33984 3.30469 4.21875 2.25 4.21875C1.16016 4.21875 0.28125 3.33984 0.28125 2.25C0.28125 1.19531 1.16016 0.28125 2.25 0.28125C3.30469 0.28125 4.21875 1.19531 4.21875 2.25ZM9.84375 2.25C9.84375 3.33984 8.92969 4.21875 7.875 4.21875C6.78516 4.21875 5.90625 3.33984 5.90625 2.25C5.90625 1.19531 6.78516 0.28125 7.875 0.28125C8.92969 0.28125 9.84375 1.19531 9.84375 2.25ZM11.5312 2.25C11.5312 1.19531 12.4102 0.28125 13.5 0.28125C14.5547 0.28125 15.4688 1.19531 15.4688 2.25C15.4688 3.33984 14.5547 4.21875 13.5 4.21875C12.4102 4.21875 11.5312 3.33984 11.5312 2.25Z" fill="black"/>
</svg>
