<svg width="18" height="19" viewBox="0 0 18 19" fill="none" xmlns="http://www.w3.org/2000/svg">
<path d="M15.625 0.75C16.6406 0.75 17.5 1.60938 17.5 2.625V16.375C17.5 17.4297 16.6406 18.25 15.625 18.25H10.2344V12.3125H12.5L12.9297 9.5H10.2344V7.70312C10.2344 6.92188 10.625 6.17969 11.8359 6.17969H13.0469V3.79688C13.0469 3.79688 11.9531 3.60156 10.8594 3.60156C8.67188 3.60156 7.22656 4.96875 7.22656 7.39062V9.5H4.76562V12.3125H7.22656V18.25H1.875C0.820312 18.25 0 17.4297 0 16.375V2.625C0 1.60938 0.820312 0.75 1.875 0.75H15.625Z" fill="#093E72"/>
</svg>
