<svg width="21" height="19" viewBox="0 0 21 19" fill="none" xmlns="http://www.w3.org/2000/svg">
<path d="M18.4609 3.25C19.8672 3.25 20.9609 4.38281 20.9609 5.75L20.9609 15.75C20.9609 17.1562 19.8281 18.25 18.4609 18.25L3.46094 18.25C2.05469 18.25 0.960938 17.1562 0.960938 15.75L0.960938 3.25C0.960938 1.88281 2.05469 0.75 3.46094 0.75L8.07031 0.75C8.73438 0.75 9.35938 1.02344 9.82812 1.49219L11.7422 3.25L18.4609 3.25ZM19.0859 15.75L19.0859 5.75C19.0859 5.4375 18.7734 5.125 18.4609 5.125L10.9609 5.125L8.46094 2.82031C8.34375 2.70312 8.1875 2.625 8.03125 2.625L3.46094 2.625C3.10938 2.625 2.83594 2.9375 2.83594 3.25L2.83594 15.75C2.83594 16.1016 3.10938 16.375 3.46094 16.375L18.4609 16.375C18.7734 16.375 19.0859 16.1016 19.0859 15.75Z" fill="#1E1E1E"/>
</svg>
