<svg width="29" height="23" viewBox="0 0 29 23" fill="none" xmlns="http://www.w3.org/2000/svg">
<path d="M7.72656 5.80469C10.2422 3.28906 14.375 3.28906 16.8906 5.80469C19.1367 8.05078 19.4512 11.5996 17.6094 14.2051L17.5645 14.25C17.1152 14.9238 16.2168 15.0586 15.543 14.6094C14.9141 14.1152 14.7344 13.2168 15.2285 12.5879L15.2734 12.543C16.3066 11.0605 16.127 9.12891 14.8691 7.87109C13.4766 6.43359 11.1855 6.43359 9.74805 7.87109L4.7168 12.9023C3.2793 14.2949 3.2793 16.5859 4.7168 18.0234C5.97461 19.2812 7.95117 19.416 9.38867 18.4277L9.43359 18.3379C10.1074 17.8887 11.0059 18.0234 11.4551 18.6973C11.9043 19.3262 11.7695 20.2246 11.1406 20.7188L11.0508 20.7637C8.44531 22.6055 4.94141 22.291 2.69531 20.0449C0.134766 17.5293 0.134766 13.3965 2.69531 10.8809L7.72656 5.80469ZM20.9785 16.9453C18.4629 19.5059 14.3301 19.5059 11.8145 16.9453C9.56836 14.6992 9.25391 11.1953 11.0957 8.58984L11.1406 8.54492C11.5898 7.87109 12.4883 7.73633 13.1621 8.18555C13.791 8.63477 13.9707 9.5332 13.4766 10.207L13.4316 10.252C12.3984 11.6895 12.5781 13.666 13.8359 14.9238C15.2285 16.3613 17.5195 16.3613 18.957 14.9238L23.9883 9.89258C25.4258 8.45508 25.4258 6.16406 23.9883 4.77148C22.7305 3.51367 20.7539 3.33398 19.3164 4.36719L19.2715 4.41211C18.5977 4.90625 17.6992 4.72656 17.25 4.09766C16.8008 3.46875 16.9355 2.57031 17.5645 2.07617L17.6543 2.03125C20.2598 0.189453 23.7637 0.503906 26.0098 2.75C28.5703 5.26562 28.5703 9.39844 26.0098 11.9141L20.9785 16.9453Z" fill="#093E72"/>
</svg>
