<svg width="40" height="36" viewBox="0 0 40 36" fill="none" xmlns="http://www.w3.org/2000/svg">
<path d="M35.625 0.5C37.9688 0.5 40 2.53125 40 4.875V28.625C40 32.4531 36.875 35.5 33.125 35.5H5.625C2.5 35.5 0 33 0 29.875V6.75C0 5.73438 0.78125 4.875 1.875 4.875C2.89062 4.875 3.75 5.73438 3.75 6.75V29.875C3.75 30.9688 4.53125 31.75 5.625 31.75C6.64062 31.75 7.5 30.9688 7.5 29.875V4.875C7.5 2.53125 9.45312 0.5 11.875 0.5H35.625ZM36.25 28.625V4.875C36.25 4.5625 35.9375 4.25 35.625 4.25H11.875C11.4844 4.25 11.25 4.5625 11.25 4.875V29.875C11.25 30.5781 11.0938 31.2031 10.8594 31.75H33.125C34.8438 31.75 36.25 30.4219 36.25 28.625ZM20.625 19.25C21.6406 19.25 22.5 20.1094 22.5 21.125C22.5 22.2188 21.6406 23 20.625 23H15.625C14.5312 23 13.75 22.2188 13.75 21.125C13.75 20.1094 14.5312 19.25 15.625 19.25H20.625ZM31.875 19.25C32.8906 19.25 33.75 20.1094 33.75 21.125C33.75 22.2188 32.8906 23 31.875 23H26.875C25.7812 23 25 22.2188 25 21.125C25 20.1094 25.7812 19.25 26.875 19.25H31.875ZM20.625 25.5C21.6406 25.5 22.5 26.3594 22.5 27.375C22.5 28.4688 21.6406 29.25 20.625 29.25H15.625C14.5312 29.25 13.75 28.4688 13.75 27.375C13.75 26.3594 14.5312 25.5 15.625 25.5H20.625ZM31.875 25.5C32.8906 25.5 33.75 26.3594 33.75 27.375C33.75 28.4688 32.8906 29.25 31.875 29.25H26.875C25.7812 29.25 25 28.4688 25 27.375C25 26.3594 25.7812 25.5 26.875 25.5H31.875ZM31.25 6.75C32.5781 6.75 33.75 7.92188 33.75 9.25V14.25C33.75 15.6562 32.5781 16.75 31.25 16.75H16.25C14.8438 16.75 13.75 15.6562 13.75 14.25V9.25C13.75 7.92188 14.8438 6.75 16.25 6.75H31.25Z" fill="#ECECEC"/>
</svg>
