<svg width="56" height="56" viewBox="0 0 56 56" fill="none" xmlns="http://www.w3.org/2000/svg">
<path d="M54.7015 20.9086C55.0474 21.5594 54.9665 22.3246 54.4119 22.8163L33.2068 49.5447C32.8657 49.9792 32.3217 50.2966 31.7309 50.2261C31.4498 50.2442 31.101 50.2233 30.8304 50.067C30.5597 49.9108 30.3958 49.726 30.2319 49.5411L25.242 42.8713L14.9195 43.4068C14.5707 43.3859 14.1934 43.2582 13.9227 43.102C13.7197 42.9848 13.4882 42.7609 13.2566 42.5369C12.9107 41.8862 12.9525 41.1886 13.3041 40.5797L17.7181 32.9343L9.79878 22.5886C9.41376 22.0055 9.32031 21.2298 9.67188 20.6209C9.95578 19.9729 10.6456 19.5593 11.3431 19.6012L53.0491 19.8644C53.7856 19.8386 54.4232 20.2969 54.7015 20.9086ZM41.2784 23.5331L15.1445 23.3295L20.4622 30.3689L41.2784 23.5331ZM18.2028 39.4387L22.4479 39.2735L20.1168 36.1234L18.2028 39.4387ZM31.8496 45.333L47.7143 25.3544L22.8323 33.4513L31.8496 45.333Z" fill="#034078"/>
</svg>
