<svg width="21" height="21" viewBox="0 0 21 21" fill="none" xmlns="http://www.w3.org/2000/svg">
<path d="M19.7266 17.5552C20.0781 17.9458 20.0781 18.5317 19.6875 18.8833L18.5938 19.9771C18.2422 20.3677 17.6562 20.3677 17.2656 19.9771L13.3984 16.1099C13.2031 15.9146 13.125 15.6802 13.125 15.4458V14.7817C11.7188 15.8755 10 16.5005 8.125 16.5005C3.63281 16.5005 0 12.8677 0 8.37549C0 3.92236 3.63281 0.250488 8.125 0.250488C12.5781 0.250488 16.25 3.92236 16.25 8.37549C16.25 10.2896 15.5859 12.0083 14.5312 13.3755H15.1562C15.3906 13.3755 15.625 13.4927 15.8203 13.6489L19.7266 17.5552ZM8.125 13.3755C10.8594 13.3755 13.125 11.1489 13.125 8.37549C13.125 5.64111 10.8594 3.37549 8.125 3.37549C5.35156 3.37549 3.125 5.64111 3.125 8.37549C3.125 11.1489 5.35156 13.3755 8.125 13.3755Z" fill="white"/>
</svg>
